<svg class="diagram-root" style="background: #f5f6f6" xmlns="http://www.w3.org/2000/svg" xmlns:xlink="http://www.w3.org/1999/xlink"><style>.diagram-root { font-family: "Helvetica Neue", sans-serif; font-size: 12px; } .t { overflow: visible; } .t-bg { y: 40; fill: #fff;   } .th { fill: #005aa0;   } .tht { fill: #fff; font-size: 14px;  } .tf { fill: #323c46; overflow: visible; } .tf.pk { fill: #005aa0; font-weight: bold; } .tf.fk { font-weight: bold; } .ty { fill: #adb1b5; font-weight: normal; text-anchor: end; } .r { fill: transparent; stroke: #c3c3c3; stroke-width: 1; } .l { stroke: 1; } .i { fill: #c2c7ce; stroke: #c2c7ce; } .i.ix { fill: #afb3b6; stroke: #000; } .fa { fill: transparent; overflow: visible; } .fa .bg.hover { fill: #f7f7f7; } .c { cy: 12; r: 4; stroke: #d2d2dc; fill: #d2d2dc; } .hr { fill: transparent; stroke: #323c46; stroke-opacity: 0.035; stroke-width: 13; } .dc { stroke: #fa5a3c; fill: #fa5a3c; } .x { stroke: white; stroke-width: 1; } .hl .th { fill: #1b9bff; } .hl .tht {  } .fhl .bg { fill: #e7f4ff; } .fhls .bg {  } .r.hl { stroke: #1b9bff; } .dim { opacity: 0.25; }</style><g class="drawing-wrapper" transform="translate(-10, -14.000000000000007) scale(1,1)"><g class="rs"><path d="M 331.43 251 m -1, 0 a 1,1 0 1,0 2,0 a 1,1 0 1,0 -2,0 M 331.43 251 m -0.5, 0 a 0.5,0.5 0 1,0 1,0 a 0.5,0.5 0 1,0 -1,0  M331.43 251 L331.43 251 319.43 251 M 331.43 257 m -1, 0 a 1,1 0 1,0 2,0 a 1,1 0 1,0 -2,0 M 331.43 257 m -0.5, 0 a 0.5,0.5 0 1,0 1,0 a 0.5,0.5 0 1,0 -1,0  M331.43 257 L331.43 257 324.43 251 331.43 245 M 331.43 245 m -1, 0 a 1,1 0 1,0 2,0 a 1,1 0 1,0 -2,0 M 331.43 245 m -0.5, 0 a 0.5,0.5 0 1,0 1,0 a 0.5,0.5 0 1,0 -1,0  M319.43 251 Q 303.94 251, 288.45 250.93 T 257.47 250.86 M 245.47 250.86 m -1, 0 a 1,1 0 1,0 2,0 a 1,1 0 1,0 -2,0 M 245.47 250.86 m -0.5, 0 a 0.5,0.5 0 1,0 1,0 a 0.5,0.5 0 1,0 -1,0  M245.47 250.86 L245.47 250.86 257.47 250.86 M251.47 256.86 L251.47 256.86 251.47 244.86" id="h3179767018" class="r"></path><path d="M 653 179.43 m -1, 0 a 1,1 0 1,0 2,0 a 1,1 0 1,0 -2,0 M 653 179.43 m -0.5, 0 a 0.5,0.5 0 1,0 1,0 a 0.5,0.5 0 1,0 -1,0  M653 179.43 L653 179.43 665 179.43 M 653 185.43 m -1, 0 a 1,1 0 1,0 2,0 a 1,1 0 1,0 -2,0 M 653 185.43 m -0.5, 0 a 0.5,0.5 0 1,0 1,0 a 0.5,0.5 0 1,0 -1,0  M653 185.43 L653 185.43 660 179.43 653 173.43 M 653 173.43 m -1, 0 a 1,1 0 1,0 2,0 a 1,1 0 1,0 -2,0 M 653 173.43 m -0.5, 0 a 0.5,0.5 0 1,0 1,0 a 0.5,0.5 0 1,0 -1,0  M665 179.43 C 715 179.43, 822.7180000000001 101, 485.47 101 M 473.47 101 m -1, 0 a 1,1 0 1,0 2,0 a 1,1 0 1,0 -2,0 M 473.47 101 m -0.5, 0 a 0.5,0.5 0 1,0 1,0 a 0.5,0.5 0 1,0 -1,0  M473.47 101 L473.47 101 485.47 101 M479.47 107 L479.47 107 479.47 95" id="h3803675905" class="r"></path><path d="M 653 204.43 m -1, 0 a 1,1 0 1,0 2,0 a 1,1 0 1,0 -2,0 M 653 204.43 m -0.5, 0 a 0.5,0.5 0 1,0 1,0 a 0.5,0.5 0 1,0 -1,0  M653 204.43 L653 204.43 665 204.43 M 653 210.43 m -1, 0 a 1,1 0 1,0 2,0 a 1,1 0 1,0 -2,0 M 653 210.43 m -0.5, 0 a 0.5,0.5 0 1,0 1,0 a 0.5,0.5 0 1,0 -1,0  M653 210.43 L653 210.43 660 204.43 653 198.43 M 653 198.43 m -1, 0 a 1,1 0 1,0 2,0 a 1,1 0 1,0 -2,0 M 653 198.43 m -0.5, 0 a 0.5,0.5 0 1,0 1,0 a 0.5,0.5 0 1,0 -1,0  M665 204.43 C 695.1557897518131 204.43, 696.7157897518132 294.86, 662.4 294.86 M 650.4 294.86 m -1, 0 a 1,1 0 1,0 2,0 a 1,1 0 1,0 -2,0 M 650.4 294.86 m -0.5, 0 a 0.5,0.5 0 1,0 1,0 a 0.5,0.5 0 1,0 -1,0  M650.4 294.86 L650.4 294.86 662.4 294.86 M656.4 300.86 L656.4 300.86 656.4 288.86" id="h4122665582" class="r"></path><path d="M 529.57 412.14 m -1, 0 a 1,1 0 1,0 2,0 a 1,1 0 1,0 -2,0 M 529.57 412.14 m -0.5, 0 a 0.5,0.5 0 1,0 1,0 a 0.5,0.5 0 1,0 -1,0  M529.57 412.14 L529.57 412.14 517.57 412.14 M 529.57 418.14 m -1, 0 a 1,1 0 1,0 2,0 a 1,1 0 1,0 -2,0 M 529.57 418.14 m -0.5, 0 a 0.5,0.5 0 1,0 1,0 a 0.5,0.5 0 1,0 -1,0  M529.57 418.14 L529.57 418.14 522.57 412.14 529.57 406.14 M 529.57 406.14 m -1, 0 a 1,1 0 1,0 2,0 a 1,1 0 1,0 -2,0 M 529.57 406.14 m -0.5, 0 a 0.5,0.5 0 1,0 1,0 a 0.5,0.5 0 1,0 -1,0  M517.57 412.14 C 472.279498568661 412.14, 474.595498568661 294.86, 513.71 294.86 M 525.71 294.86 m -1, 0 a 1,1 0 1,0 2,0 a 1,1 0 1,0 -2,0 M 525.71 294.86 m -0.5, 0 a 0.5,0.5 0 1,0 1,0 a 0.5,0.5 0 1,0 -1,0  M525.71 294.86 L525.71 294.86 513.71 294.86 M519.71 300.86 L519.71 300.86 519.71 288.86" id="h380211315" class="r"></path><path d="M 238.75 102 m -1, 0 a 1,1 0 1,0 2,0 a 1,1 0 1,0 -2,0 M 238.75 102 m -0.5, 0 a 0.5,0.5 0 1,0 1,0 a 0.5,0.5 0 1,0 -1,0  M238.75 102 L238.75 102 250.75 102 M 238.75 108 m -1, 0 a 1,1 0 1,0 2,0 a 1,1 0 1,0 -2,0 M 238.75 108 m -0.5, 0 a 0.5,0.5 0 1,0 1,0 a 0.5,0.5 0 1,0 -1,0  M238.75 108 L238.75 108 245.75 102 238.75 96 M 238.75 96 m -1, 0 a 1,1 0 1,0 2,0 a 1,1 0 1,0 -2,0 M 238.75 96 m -0.5, 0 a 0.5,0.5 0 1,0 1,0 a 0.5,0.5 0 1,0 -1,0  M250.75 102 Q 267.92 102, 285.09 101.5 T 319.43 101 M 331.43 101 m -1, 0 a 1,1 0 1,0 2,0 a 1,1 0 1,0 -2,0 M 331.43 101 m -0.5, 0 a 0.5,0.5 0 1,0 1,0 a 0.5,0.5 0 1,0 -1,0  M331.43 101 L331.43 101 319.43 101 M325.43 107 L325.43 107 325.43 95" id="h2600725644" class="r"></path></g><g class="hrs"></g><g class="ts"><svg width="142.04" height="325" x="331.43" y="44" id="h3261430702" class="t"><rect height="40" width="142.04" class="th"></rect><text x="13" y="25" class="tht">colleges</text><rect height="285" width="142.04" class="t-bg"></rect><text x="13" y="61" class="tf pk">college_id<tspan x="129.04" class="ty">int</tspan></text><path d="M7,14A2,2 0 0,1 5,12A2,2 0 0,1 7,10A2,2 0 0,1 9,12A2,2 0 0,1 7,14M12.65,10C11.83,7.67 9.61,6 7, 6A6, 6 0 0, 0 1, 12A6, 6 0 0, 0 7, 18C9.61, 18 11.83, 16.33 12.65, 14H17V18H21V14H23V10H12.65Z" class="i pk" transform="translate(96.36617187499999, 48) scale(0.65)"></path><text x="13" y="86" class="tf">name<tspan x="129.04" class="ty">varchar</tspan></text><text x="13" y="111" class="tf">type<tspan x="129.04" class="ty">varchar</tspan></text><text x="13" y="136" class="tf">website<tspan x="129.04" class="ty">varchar</tspan></text><text x="13" y="161" class="tf">city<tspan x="129.04" class="ty">varchar</tspan></text><text x="13" y="186" class="tf">state<tspan x="129.04" class="ty">varchar(2)</tspan></text><text x="13" y="211" class="tf fk">zipcode<tspan x="129.04" class="ty">varchar(5)</tspan></text><text x="13" y="236" class="tf">latitude<tspan x="129.04" class="ty">float</tspan></text><text x="13" y="261" class="tf">longitutde<tspan x="129.04" class="ty">float</tspan></text><text x="13" y="286" class="tf">state_fips<tspan x="129.04" class="ty">int</tspan></text><text x="13" y="311" class="tf">region<tspan x="129.04" class="ty">varchar</tspan></text></svg><svg width="162.04" height="150" x="83.43" y="193.86" id="h850082920" class="t"><rect height="40" width="162.04" class="th"></rect><text x="13" y="25" class="tht">regions</text><rect height="110" width="162.04" class="t-bg"></rect><text x="13" y="61" class="tf pk">zipcode<tspan x="149.04" class="ty">varchar(5)</tspan></text><path d="M7,14A2,2 0 0,1 5,12A2,2 0 0,1 7,10A2,2 0 0,1 9,12A2,2 0 0,1 7,14M12.65,10C11.83,7.67 9.61,6 7, 6A6, 6 0 0, 0 1, 12A6, 6 0 0, 0 7, 18C9.61, 18 11.83, 16.33 12.65, 14H17V18H21V14H23V10H12.65Z" class="i pk" transform="translate(74.36031249999999, 48) scale(0.65)"></path><text x="13" y="86" class="tf">cbsa_code<tspan x="149.04" class="ty">int(5)</tspan></text><text x="13" y="111" class="tf">title<tspan x="149.04" class="ty">varchar</tspan></text><text x="13" y="136" class="tf">metro<tspan x="149.04" class="ty">varchar</tspan></text></svg><svg width="124.69" height="100" x="525.71" y="237.86" id="h3111281676" class="t"><rect height="40" width="124.69" class="th"></rect><text x="13" y="25" class="tht">majors</text><rect height="60" width="124.69" class="t-bg"></rect><text x="13" y="61" class="tf pk">major_id<tspan x="111.69" class="ty">int</tspan></text><path d="M7,14A2,2 0 0,1 5,12A2,2 0 0,1 7,10A2,2 0 0,1 9,12A2,2 0 0,1 7,14M12.65,10C11.83,7.67 9.61,6 7, 6A6, 6 0 0, 0 1, 12A6, 6 0 0, 0 7, 18C9.61, 18 11.83, 16.33 12.65, 14H17V18H21V14H23V10H12.65Z" class="i pk" transform="translate(79.016171875, 48) scale(0.65)"></path><text x="13" y="86" class="tf">major<tspan x="111.69" class="ty">varchar</tspan></text></svg><svg width="132.71" height="100" x="520.29" y="122.43" id="h535893593" class="t"><rect height="40" width="132.71" class="th"></rect><text x="13" y="25" class="tht">college_majors</text><rect height="60" width="132.71" class="t-bg"></rect><text x="13" y="61" class="tf pk">college_id<tspan x="119.71000000000001" class="ty">int</tspan></text><path d="M7,14A2,2 0 0,1 5,12A2,2 0 0,1 7,10A2,2 0 0,1 9,12A2,2 0 0,1 7,14M12.65,10C11.83,7.67 9.61,6 7, 6A6, 6 0 0, 0 1, 12A6, 6 0 0, 0 7, 18C9.61, 18 11.83, 16.33 12.65, 14H17V18H21V14H23V10H12.65Z" class="i pk" transform="translate(87.03617187500001, 48) scale(0.65)"></path><text x="13" y="86" class="tf pk">major_id<tspan x="119.71000000000001" class="ty">int</tspan></text><path d="M7,14A2,2 0 0,1 5,12A2,2 0 0,1 7,10A2,2 0 0,1 9,12A2,2 0 0,1 7,14M12.65,10C11.83,7.67 9.61,6 7, 6A6, 6 0 0, 0 1, 12A6, 6 0 0, 0 7, 18C9.61, 18 11.83, 16.33 12.65, 14H17V18H21V14H23V10H12.65Z" class="i pk" transform="translate(87.03617187500001, 73) scale(0.65)"></path></svg><svg width="206.75" height="125" x="529.57" y="355.14" id="h3337214892" class="t"><rect height="40" width="206.75" class="th"></rect><text x="13" y="25" class="tht">salaries_per_major</text><rect height="85" width="206.75" class="t-bg"></rect><text x="13" y="61" class="tf pk">major_id<tspan x="193.75" class="ty">int</tspan></text><path d="M7,14A2,2 0 0,1 5,12A2,2 0 0,1 7,10A2,2 0 0,1 9,12A2,2 0 0,1 7,14M12.65,10C11.83,7.67 9.61,6 7, 6A6, 6 0 0, 0 1, 12A6, 6 0 0, 0 7, 18C9.61, 18 11.83, 16.33 12.65, 14H17V18H21V14H23V10H12.65Z" class="i pk" transform="translate(161.076171875, 48) scale(0.65)"></path><text x="13" y="86" class="tf">starting_median_salary<tspan x="193.75" class="ty">float</tspan></text><text x="13" y="111" class="tf">midcareer_median_salary<tspan x="193.75" class="ty">float</tspan></text></svg><svg width="206.75" height="125" x="32" y="45" id="h3539033817" class="t"><rect height="40" width="206.75" class="th"></rect><text x="13" y="25" class="tht">salaries_per_college</text><rect height="85" width="206.75" class="t-bg"></rect><text x="13" y="61" class="tf pk">college_id<tspan x="193.75" class="ty">int</tspan></text><path d="M7,14A2,2 0 0,1 5,12A2,2 0 0,1 7,10A2,2 0 0,1 9,12A2,2 0 0,1 7,14M12.65,10C11.83,7.67 9.61,6 7, 6A6, 6 0 0, 0 1, 12A6, 6 0 0, 0 7, 18C9.61, 18 11.83, 16.33 12.65, 14H17V18H21V14H23V10H12.65Z" class="i pk" transform="translate(161.076171875, 48) scale(0.65)"></path><text x="13" y="86" class="tf">starting_median_salary<tspan x="193.75" class="ty">float</tspan></text><text x="13" y="111" class="tf">midcareer_median_salary<tspan x="193.75" class="ty">float</tspan></text></svg></g></g><text class="qdbd-link" x="10" y="20">www.quickdatabasediagrams.com</text></svg>