<svg class="diagram-root" style="background: #f5f6f6" xmlns="http://www.w3.org/2000/svg" xmlns:xlink="http://www.w3.org/1999/xlink"><style>.diagram-root { font-family: "Helvetica Neue", sans-serif; font-size: 12px; } .t { overflow: visible; } .t-bg { y: 40; fill: #fff;   } .th { fill: #005aa0;   } .tht { fill: #fff; font-size: 14px;  } .tf { fill: #323c46; overflow: visible; } .tf.pk { fill: #005aa0; font-weight: bold; } .tf.fk { font-weight: bold; } .ty { fill: #adb1b5; font-weight: normal; text-anchor: end; } .r { fill: transparent; stroke: #c3c3c3; stroke-width: 1; } .l { stroke: 1; } .i { fill: #c2c7ce; stroke: #c2c7ce; } .i.ix { fill: #afb3b6; stroke: #000; } .fa { fill: transparent; overflow: visible; } .fa .bg.hover { fill: #f7f7f7; } .c { cy: 12; r: 4; stroke: #d2d2dc; fill: #d2d2dc; } .hr { fill: transparent; stroke: #323c46; stroke-opacity: 0.035; stroke-width: 13; } .dc { stroke: #fa5a3c; fill: #fa5a3c; } .x { stroke: white; stroke-width: 1; } .hl .th { fill: #1b9bff; } .hl .tht {  } .fhl .bg { fill: #e7f4ff; } .fhls .bg {  } .r.hl { stroke: #1b9bff; } .dim { opacity: 0.25; }</style><g class="drawing-wrapper" transform="translate(-16.999999999999787, -51.666666666666686) scale(1,1)"><g class="rs"><path d="M 433.04 290 m -1, 0 a 1,1 0 1,0 2,0 a 1,1 0 1,0 -2,0 M 433.04 290 m -0.5, 0 a 0.5,0.5 0 1,0 1,0 a 0.5,0.5 0 1,0 -1,0  M433.04 290 L433.04 290 445.04 290 M 433.04 296 m -1, 0 a 1,1 0 1,0 2,0 a 1,1 0 1,0 -2,0 M 433.04 296 m -0.5, 0 a 0.5,0.5 0 1,0 1,0 a 0.5,0.5 0 1,0 -1,0  M433.04 296 L433.04 296 440.04 290 433.04 284 M 433.04 284 m -1, 0 a 1,1 0 1,0 2,0 a 1,1 0 1,0 -2,0 M 433.04 284 m -0.5, 0 a 0.5,0.5 0 1,0 1,0 a 0.5,0.5 0 1,0 -1,0  M445.04 290 Q 463.45 290, 481.86 289.83 T 518.67 289.66999999999996 M 530.67 289.66999999999996 m -1, 0 a 1,1 0 1,0 2,0 a 1,1 0 1,0 -2,0 M 530.67 289.66999999999996 m -0.5, 0 a 0.5,0.5 0 1,0 1,0 a 0.5,0.5 0 1,0 -1,0  M530.67 289.66999999999996 L530.67 289.66999999999996 518.67 289.66999999999996 M524.67 295.66999999999996 L524.67 295.66999999999996 524.67 283.66999999999996" id="h3179767018" class="r"></path><path d="M 433.04 365 m -1, 0 a 1,1 0 1,0 2,0 a 1,1 0 1,0 -2,0 M 433.04 365 m -0.5, 0 a 0.5,0.5 0 1,0 1,0 a 0.5,0.5 0 1,0 -1,0  M433.04 365 L433.04 365 445.04 365 M 433.04 371 m -1, 0 a 1,1 0 1,0 2,0 a 1,1 0 1,0 -2,0 M 433.04 371 m -0.5, 0 a 0.5,0.5 0 1,0 1,0 a 0.5,0.5 0 1,0 -1,0  M433.04 371 L433.04 371 440.04 365 433.04 359 M 433.04 359 m -1, 0 a 1,1 0 1,0 2,0 a 1,1 0 1,0 -2,0 M 433.04 359 m -0.5, 0 a 0.5,0.5 0 1,0 1,0 a 0.5,0.5 0 1,0 -1,0  M445.04 365 Q 463.45 365, 481.86 377.34 T 518.67 389.66999999999996 M 530.67 389.66999999999996 m -1, 0 a 1,1 0 1,0 2,0 a 1,1 0 1,0 -2,0 M 530.67 389.66999999999996 m -0.5, 0 a 0.5,0.5 0 1,0 1,0 a 0.5,0.5 0 1,0 -1,0  M530.67 389.66999999999996 L530.67 389.66999999999996 518.67 389.66999999999996 M524.67 395.66999999999996 L524.67 395.66999999999996 524.67 383.66999999999996" id="h3929419433" class="r"></path><path d="M 185.82 139.67000000000002 m -1, 0 a 1,1 0 1,0 2,0 a 1,1 0 1,0 -2,0 M 185.82 139.67000000000002 m -0.5, 0 a 0.5,0.5 0 1,0 1,0 a 0.5,0.5 0 1,0 -1,0  M185.82 139.67000000000002 L185.82 139.67000000000002 197.82 139.67000000000002 M 185.82 145.67000000000002 m -1, 0 a 1,1 0 1,0 2,0 a 1,1 0 1,0 -2,0 M 185.82 145.67000000000002 m -0.5, 0 a 0.5,0.5 0 1,0 1,0 a 0.5,0.5 0 1,0 -1,0  M185.82 145.67000000000002 L185.82 145.67000000000002 192.82 139.67000000000002 185.82 133.67000000000002 M 185.82 133.67000000000002 m -1, 0 a 1,1 0 1,0 2,0 a 1,1 0 1,0 -2,0 M 185.82 133.67000000000002 m -0.5, 0 a 0.5,0.5 0 1,0 1,0 a 0.5,0.5 0 1,0 -1,0  M197.82 139.67000000000002 Q 218.12 139.67000000000002, 238.41 139.84 T 279 140 M 291 140 m -1, 0 a 1,1 0 1,0 2,0 a 1,1 0 1,0 -2,0 M 291 140 m -0.5, 0 a 0.5,0.5 0 1,0 1,0 a 0.5,0.5 0 1,0 -1,0  M291 140 L291 140 279 140 M285 146 L285 146 285 134" id="h3803675905" class="r"></path><path d="M 185.82 164.67000000000002 m -1, 0 a 1,1 0 1,0 2,0 a 1,1 0 1,0 -2,0 M 185.82 164.67000000000002 m -0.5, 0 a 0.5,0.5 0 1,0 1,0 a 0.5,0.5 0 1,0 -1,0  M185.82 164.67000000000002 L185.82 164.67000000000002 197.82 164.67000000000002 M 185.82 170.67000000000002 m -1, 0 a 1,1 0 1,0 2,0 a 1,1 0 1,0 -2,0 M 185.82 170.67000000000002 m -0.5, 0 a 0.5,0.5 0 1,0 1,0 a 0.5,0.5 0 1,0 -1,0  M185.82 170.67000000000002 L185.82 170.67000000000002 192.82 164.67000000000002 185.82 158.67000000000002 M 185.82 158.67000000000002 m -1, 0 a 1,1 0 1,0 2,0 a 1,1 0 1,0 -2,0 M 185.82 158.67000000000002 m -0.5, 0 a 0.5,0.5 0 1,0 1,0 a 0.5,0.5 0 1,0 -1,0  M197.82 164.67000000000002 C 237.9073725528389 164.67000000000002, 236.91737255283888 277, 199.47 277 M 187.47 277 m -1, 0 a 1,1 0 1,0 2,0 a 1,1 0 1,0 -2,0 M 187.47 277 m -0.5, 0 a 0.5,0.5 0 1,0 1,0 a 0.5,0.5 0 1,0 -1,0  M187.47 277 L187.47 277 199.47 277 M193.47 283 L193.47 283 193.47 271" id="h4122665582" class="r"></path><path d="M 39 412.33 m -1, 0 a 1,1 0 1,0 2,0 a 1,1 0 1,0 -2,0 M 39 412.33 m -0.5, 0 a 0.5,0.5 0 1,0 1,0 a 0.5,0.5 0 1,0 -1,0  M39 412.33 L39 412.33 27 412.33 M 39 418.33 m -1, 0 a 1,1 0 1,0 2,0 a 1,1 0 1,0 -2,0 M 39 418.33 m -0.5, 0 a 0.5,0.5 0 1,0 1,0 a 0.5,0.5 0 1,0 -1,0  M39 418.33 L39 418.33 32 412.33 39 406.33 M 39 406.33 m -1, 0 a 1,1 0 1,0 2,0 a 1,1 0 1,0 -2,0 M 39 406.33 m -0.5, 0 a 0.5,0.5 0 1,0 1,0 a 0.5,0.5 0 1,0 -1,0  M27 412.33 C -18.80113693397189 412.33, -33.06913693397189 277, 50.78 277 M 62.78 277 m -1, 0 a 1,1 0 1,0 2,0 a 1,1 0 1,0 -2,0 M 62.78 277 m -0.5, 0 a 0.5,0.5 0 1,0 1,0 a 0.5,0.5 0 1,0 -1,0  M62.78 277 L62.78 277 50.78 277 M56.78 283 L56.78 283 56.78 271" id="h380211315" class="r"></path><path d="M 528.33 138.67000000000002 m -1, 0 a 1,1 0 1,0 2,0 a 1,1 0 1,0 -2,0 M 528.33 138.67000000000002 m -0.5, 0 a 0.5,0.5 0 1,0 1,0 a 0.5,0.5 0 1,0 -1,0  M528.33 138.67000000000002 L528.33 138.67000000000002 516.33 138.67000000000002 M 528.33 144.67000000000002 m -1, 0 a 1,1 0 1,0 2,0 a 1,1 0 1,0 -2,0 M 528.33 144.67000000000002 m -0.5, 0 a 0.5,0.5 0 1,0 1,0 a 0.5,0.5 0 1,0 -1,0  M528.33 144.67000000000002 L528.33 144.67000000000002 521.33 138.67000000000002 528.33 132.67000000000002 M 528.33 132.67000000000002 m -1, 0 a 1,1 0 1,0 2,0 a 1,1 0 1,0 -2,0 M 528.33 132.67000000000002 m -0.5, 0 a 0.5,0.5 0 1,0 1,0 a 0.5,0.5 0 1,0 -1,0  M516.33 138.67000000000002 Q 498.51 138.67000000000002, 480.69 139.34 T 445.04 140 M 433.04 140 m -1, 0 a 1,1 0 1,0 2,0 a 1,1 0 1,0 -2,0 M 433.04 140 m -0.5, 0 a 0.5,0.5 0 1,0 1,0 a 0.5,0.5 0 1,0 -1,0  M433.04 140 L433.04 140 445.04 140 M439.04 146 L439.04 146 439.04 134" id="h2600725644" class="r"></path></g><g class="hrs"></g><g class="ts"><svg width="142.04" height="325" x="291" y="83" id="h3261430702" class="t"><rect height="40" width="142.04" class="th"></rect><text x="13" y="25" class="tht">colleges</text><rect height="285" width="142.04" class="t-bg"></rect><text x="13" y="61" class="tf pk">college_id<tspan x="129.04" class="ty">int</tspan></text><path d="M7,14A2,2 0 0,1 5,12A2,2 0 0,1 7,10A2,2 0 0,1 9,12A2,2 0 0,1 7,14M12.65,10C11.83,7.67 9.61,6 7, 6A6, 6 0 0, 0 1, 12A6, 6 0 0, 0 7, 18C9.61, 18 11.83, 16.33 12.65, 14H17V18H21V14H23V10H12.65Z" class="i pk" transform="translate(96.36617187499999, 48) scale(0.65)"></path><text x="13" y="86" class="tf">name<tspan x="129.04" class="ty">varchar</tspan></text><text x="13" y="111" class="tf">type<tspan x="129.04" class="ty">varchar</tspan></text><text x="13" y="136" class="tf">website<tspan x="129.04" class="ty">varchar</tspan></text><text x="13" y="161" class="tf">city<tspan x="129.04" class="ty">varchar</tspan></text><text x="13" y="186" class="tf">state<tspan x="129.04" class="ty">varchar(2)</tspan></text><text x="13" y="211" class="tf fk">zipcode<tspan x="129.04" class="ty">varchar(5)</tspan></text><text x="13" y="236" class="tf">latitude<tspan x="129.04" class="ty">float</tspan></text><text x="13" y="261" class="tf">longitutde<tspan x="129.04" class="ty">float</tspan></text><text x="13" y="286" class="tf fk">state_fips<tspan x="129.04" class="ty">int</tspan></text><text x="13" y="311" class="tf">region<tspan x="129.04" class="ty">varchar</tspan></text></svg><svg width="162.04" height="200" x="530.67" y="232.67" id="h850082920" class="t"><rect height="40" width="162.04" class="th"></rect><text x="13" y="25" class="tht">regions</text><rect height="160" width="162.04" class="t-bg"></rect><text x="13" y="61" class="tf pk">zipcode<tspan x="149.04" class="ty">varchar(5)</tspan></text><path d="M7,14A2,2 0 0,1 5,12A2,2 0 0,1 7,10A2,2 0 0,1 9,12A2,2 0 0,1 7,14M12.65,10C11.83,7.67 9.61,6 7, 6A6, 6 0 0, 0 1, 12A6, 6 0 0, 0 7, 18C9.61, 18 11.83, 16.33 12.65, 14H17V18H21V14H23V10H12.65Z" class="i pk" transform="translate(74.36031249999999, 48) scale(0.65)"></path><text x="13" y="86" class="tf">cbsa_code<tspan x="149.04" class="ty">int(5)</tspan></text><text x="13" y="111" class="tf">title<tspan x="149.04" class="ty">varchar</tspan></text><text x="13" y="136" class="tf">state_name<tspan x="149.04" class="ty">varchar</tspan></text><text x="13" y="161" class="tf fk">state_fips<tspan x="149.04" class="ty">int</tspan></text><text x="13" y="186" class="tf">metro<tspan x="149.04" class="ty">varchar</tspan></text></svg><svg width="124.69" height="100" x="62.78" y="220" id="h3111281676" class="t"><rect height="40" width="124.69" class="th"></rect><text x="13" y="25" class="tht">majors</text><rect height="60" width="124.69" class="t-bg"></rect><text x="13" y="61" class="tf pk">major_id<tspan x="111.69" class="ty">int</tspan></text><path d="M7,14A2,2 0 0,1 5,12A2,2 0 0,1 7,10A2,2 0 0,1 9,12A2,2 0 0,1 7,14M12.65,10C11.83,7.67 9.61,6 7, 6A6, 6 0 0, 0 1, 12A6, 6 0 0, 0 7, 18C9.61, 18 11.83, 16.33 12.65, 14H17V18H21V14H23V10H12.65Z" class="i pk" transform="translate(79.016171875, 48) scale(0.65)"></path><text x="13" y="86" class="tf">major<tspan x="111.69" class="ty">varchar</tspan></text></svg><svg width="132.71" height="100" x="53.11" y="82.67" id="h535893593" class="t"><rect height="40" width="132.71" class="th"></rect><text x="13" y="25" class="tht">college_majors</text><rect height="60" width="132.71" class="t-bg"></rect><text x="13" y="61" class="tf pk">college_id<tspan x="119.71000000000001" class="ty">int</tspan></text><path d="M7,14A2,2 0 0,1 5,12A2,2 0 0,1 7,10A2,2 0 0,1 9,12A2,2 0 0,1 7,14M12.65,10C11.83,7.67 9.61,6 7, 6A6, 6 0 0, 0 1, 12A6, 6 0 0, 0 7, 18C9.61, 18 11.83, 16.33 12.65, 14H17V18H21V14H23V10H12.65Z" class="i pk" transform="translate(87.03617187500001, 48) scale(0.65)"></path><text x="13" y="86" class="tf pk">major_id<tspan x="119.71000000000001" class="ty">int</tspan></text><path d="M7,14A2,2 0 0,1 5,12A2,2 0 0,1 7,10A2,2 0 0,1 9,12A2,2 0 0,1 7,14M12.65,10C11.83,7.67 9.61,6 7, 6A6, 6 0 0, 0 1, 12A6, 6 0 0, 0 7, 18C9.61, 18 11.83, 16.33 12.65, 14H17V18H21V14H23V10H12.65Z" class="i pk" transform="translate(87.03617187500001, 73) scale(0.65)"></path></svg><svg width="206.75" height="125" x="39" y="355.33" id="h3337214892" class="t"><rect height="40" width="206.75" class="th"></rect><text x="13" y="25" class="tht">salaries_per_major</text><rect height="85" width="206.75" class="t-bg"></rect><text x="13" y="61" class="tf pk">major_id<tspan x="193.75" class="ty">int</tspan></text><path d="M7,14A2,2 0 0,1 5,12A2,2 0 0,1 7,10A2,2 0 0,1 9,12A2,2 0 0,1 7,14M12.65,10C11.83,7.67 9.61,6 7, 6A6, 6 0 0, 0 1, 12A6, 6 0 0, 0 7, 18C9.61, 18 11.83, 16.33 12.65, 14H17V18H21V14H23V10H12.65Z" class="i pk" transform="translate(161.076171875, 48) scale(0.65)"></path><text x="13" y="86" class="tf">starting_median_salary<tspan x="193.75" class="ty">float</tspan></text><text x="13" y="111" class="tf">midcareer_median_salary<tspan x="193.75" class="ty">float</tspan></text></svg><svg width="206.75" height="125" x="528.33" y="81.67" id="h3539033817" class="t"><rect height="40" width="206.75" class="th"></rect><text x="13" y="25" class="tht">salaries_per_college</text><rect height="85" width="206.75" class="t-bg"></rect><text x="13" y="61" class="tf pk">college_id<tspan x="193.75" class="ty">int</tspan></text><path d="M7,14A2,2 0 0,1 5,12A2,2 0 0,1 7,10A2,2 0 0,1 9,12A2,2 0 0,1 7,14M12.65,10C11.83,7.67 9.61,6 7, 6A6, 6 0 0, 0 1, 12A6, 6 0 0, 0 7, 18C9.61, 18 11.83, 16.33 12.65, 14H17V18H21V14H23V10H12.65Z" class="i pk" transform="translate(161.076171875, 48) scale(0.65)"></path><text x="13" y="86" class="tf">starting_median_salary<tspan x="193.75" class="ty">float</tspan></text><text x="13" y="111" class="tf">midcareer_median_salary<tspan x="193.75" class="ty">float</tspan></text></svg></g></g><text class="qdbd-link" x="10" y="20">www.quickdatabasediagrams.com</text></svg>